<svg width="125" height="135" viewBox="0 0 125 135" fill="none" xmlns="http://www.w3.org/2000/svg">
<path opacity="0.5" d="M105.729 15.5348C121.703 29.2333 125.435 51.5477 124.386 72.5651C123.439 91.5504 115.239 109.249 100.455 121.199C85.9223 132.947 67.0042 137.397 48.6722 133.769C30.1187 130.096 13.266 119.239 4.88625 102.283C-3.40373 85.5088 -0.0367623 66.3953 6.76047 48.9626C14.2367 29.7886 24.0164 9.80056 43.5142 3.21492C64.5869 -3.90262 88.8444 1.05602 105.729 15.5348Z" fill="#B40101"/>
<path d="M99.0652 23.2334C112.673 34.9025 115.852 53.911 114.959 71.8147C114.152 87.9874 107.166 103.064 94.5731 113.244C82.193 123.251 66.0777 127.042 50.4615 123.951C34.6567 120.823 20.3006 111.574 13.1624 97.1301C6.10053 82.8409 8.96868 66.5589 14.7589 51.7089C21.1275 35.3754 29.4584 18.3486 46.0677 12.7386C64.0185 6.67554 84.6823 10.8996 99.0652 23.2334Z" fill="#B40101"/>
<path d="M64.3835 81.2688C62.0217 82.2669 59.5115 82.7759 56.9222 82.7759C54.338 82.7759 51.8179 82.2669 49.456 81.2688C48.4035 80.8241 47.4301 80.2855 46.4418 79.6678V89.4762C46.4418 90.0198 46.9014 90.4546 47.4498 90.4546H66.3996C66.9431 90.4546 67.3927 90.0248 67.3927 89.4762V88.1866C71.9881 87.9543 76.0746 85.1773 77.977 80.9723L78.9751 78.7587C77.7052 78.65 76.5291 78.1163 75.6001 77.2318L74.6021 79.4455C73.2976 82.3213 70.5058 84.2435 67.3928 84.4707V79.6678C66.454 80.2855 65.441 80.8241 64.3835 81.2688Z" fill="white"/>
<path d="M48.8776 78.9365C51.2988 80.1718 54.0313 80.8389 56.9269 80.8389C59.8224 80.8389 62.5549 80.1718 64.9712 78.9365C70.8266 75.9718 74.8487 69.9237 74.8487 62.9219C74.8488 53.0246 66.8242 45 56.9269 45C47.0295 45 39 53.0197 39 62.917C39 69.9236 43.0172 75.9718 48.8776 78.9365ZM56.9269 57.6496C59.8372 57.6496 62.1992 60.0115 62.1992 62.9219C62.1992 65.8323 59.8373 68.1942 56.9269 68.1942C54.0165 68.1942 51.6546 65.8323 51.6546 62.9219C51.6497 60.0115 54.0115 57.6496 56.9269 57.6496Z" fill="white"/>
<path d="M76.2972 75.6209C77.1026 76.5548 78.2934 77.1478 79.6227 77.1478C79.6424 77.1478 79.6573 77.1478 79.6721 77.1478C82.0686 77.1181 84.0006 75.1713 84.0006 72.7649C84.0006 70.3436 82.039 68.382 79.6178 68.382C77.1966 68.382 75.2349 70.3436 75.2349 72.7649C75.2398 73.8569 75.64 74.855 76.2972 75.6209Z" fill="white"/>
</svg>
