<svg width="119" height="120" viewBox="0 0 119 120" fill="none" xmlns="http://www.w3.org/2000/svg">
<path opacity="0.5" d="M110.428 21.9272C121.654 36.1227 119.934 54.8066 116.036 72.1221C112.139 89.4305 106.002 107.756 89.2878 115.834C72.435 123.978 52.4654 119 35.5177 111.032C19.3049 103.41 5.66261 91.0876 1.3765 74.5055C-2.90318 57.9483 3.21955 41.1266 13.8917 27.3659C24.993 13.0521 40.2939 1.16041 59.0808 0.101972C78.8017 -1.00909 98.6266 7.00448 110.428 21.9272Z" fill="#B40101"/>
<path d="M98.6914 28.2726C107.504 40.1023 106.154 55.6721 103.094 70.1018C100.035 84.5254 95.2169 99.7971 82.0955 106.528C68.8652 113.315 53.188 109.166 39.8832 102.527C27.1553 96.1754 16.4454 85.9063 13.0806 72.0879C9.72085 58.2903 14.5275 44.2722 22.9057 32.805C31.6208 20.8767 43.6327 10.967 58.3814 10.085C73.8633 9.15909 89.4269 15.8371 98.6914 28.2726Z" fill="#B40101"/>
<path d="M62.75 57.5H55.25C55.0842 57.5 54.9253 57.5658 54.8081 57.6831C54.6908 57.8003 54.625 57.9592 54.625 58.125C54.625 58.2908 54.6908 58.4497 54.8081 58.5669C54.9253 58.6842 55.0842 58.75 55.25 58.75H62.75C62.9158 58.75 63.0747 58.6842 63.1919 58.5669C63.3092 58.4497 63.375 58.2908 63.375 58.125C63.375 57.9592 63.3092 57.8003 63.1919 57.6831C63.0747 57.5658 62.9158 57.5 62.75 57.5Z" fill="white"/>
<path d="M65.875 43.125C65.8748 42.9593 65.8089 42.8004 65.6917 42.6833C65.5746 42.5661 65.4157 42.5002 65.25 42.5H52.75C52.5843 42.5002 52.4254 42.5661 52.3083 42.6833C52.1911 42.8004 52.1252 42.9593 52.125 43.125V50.3661L55.692 53.933C55.75 53.9911 55.796 54.06 55.8274 54.1358C55.8588 54.2116 55.875 54.2929 55.875 54.375V56.25H62.125V54.375C62.125 54.2929 62.1412 54.2116 62.1726 54.1358C62.204 54.06 62.25 53.9911 62.308 53.933L65.875 50.3661V43.125ZM55.25 48.75C54.8792 48.75 54.5166 48.64 54.2083 48.434C53.9 48.228 53.6596 47.9351 53.5177 47.5925C53.3758 47.2499 53.3387 46.8729 53.411 46.5092C53.4834 46.1455 53.662 45.8114 53.9242 45.5492C54.1864 45.287 54.5205 45.1084 54.8842 45.036C55.2479 44.9637 55.6249 45.0008 55.9675 45.1427C56.3101 45.2846 56.603 45.525 56.809 45.8333C57.015 46.1416 57.125 46.5042 57.125 46.875C57.1244 47.3721 56.9267 47.8487 56.5752 48.2002C56.2237 48.5517 55.7471 48.7494 55.25 48.75ZM62.75 48.75C62.3792 48.75 62.0166 48.64 61.7083 48.434C61.4 48.228 61.1596 47.9351 61.0177 47.5925C60.8758 47.2499 60.8387 46.8729 60.911 46.5092C60.9834 46.1455 61.162 45.8114 61.4242 45.5492C61.6864 45.287 62.0205 45.1084 62.3842 45.036C62.7479 44.9637 63.1249 45.0008 63.4675 45.1427C63.8101 45.2846 64.103 45.525 64.309 45.8333C64.515 46.1416 64.625 46.5042 64.625 46.875C64.6244 47.3721 64.4267 47.8487 64.0752 48.2002C63.7237 48.5517 63.2471 48.7494 62.75 48.75Z" fill="white"/>
<path d="M62.75 47.5C63.0952 47.5 63.375 47.2202 63.375 46.875C63.375 46.5298 63.0952 46.25 62.75 46.25C62.4048 46.25 62.125 46.5298 62.125 46.875C62.125 47.2202 62.4048 47.5 62.75 47.5Z" fill="white"/>
<path d="M55.25 47.5C55.5952 47.5 55.875 47.2202 55.875 46.875C55.875 46.5298 55.5952 46.25 55.25 46.25C54.9048 46.25 54.625 46.5298 54.625 46.875C54.625 47.2202 54.9048 47.5 55.25 47.5Z" fill="white"/>
<path d="M67.125 44.375H68.375V49.375H67.125V44.375Z" fill="white"/>
<path d="M45.875 44.1363V49.6137L46.6476 50H48.375V43.75H46.6476L45.875 44.1363Z" fill="white"/>
<path d="M71.9988 46.875L69.9155 43.75H69.625V50H69.9155L71.9988 46.875Z" fill="white"/>
<path d="M49.625 44.375H50.875V49.375H49.625V44.375Z" fill="white"/>
<path d="M60.875 74.1994V72.9878L58.375 73.6128V74.8244L60.875 74.1994Z" fill="white"/>
<path d="M55.875 60H62.125V61.25H55.875V60Z" fill="white"/>
<path d="M59 68.75C59.3452 68.75 59.625 68.4702 59.625 68.125C59.625 67.7798 59.3452 67.5 59 67.5C58.6548 67.5 58.375 67.7798 58.375 68.125C58.375 68.4702 58.6548 68.75 59 68.75Z" fill="white"/>
<path d="M62.75 62.5H55.25C55.0842 62.5 54.9253 62.5658 54.8081 62.6831C54.6908 62.8003 54.625 62.9592 54.625 63.125C54.625 63.2908 54.6908 63.4497 54.8081 63.5669C54.9253 63.6842 55.0842 63.75 55.25 63.75H62.75C62.9158 63.75 63.0747 63.6842 63.1919 63.5669C63.3092 63.4497 63.375 63.2908 63.375 63.125C63.375 62.9592 63.3092 62.8003 63.1919 62.6831C63.0747 62.5658 62.9158 62.5 62.75 62.5Z" fill="white"/>
<path d="M55.875 75.625C55.8756 76.1221 56.0733 76.5987 56.4248 76.9502C56.7763 77.3017 57.2529 77.4994 57.75 77.5H60.25C60.7471 77.4994 61.2237 77.3017 61.5752 76.9502C61.9267 76.5987 62.1244 76.1221 62.125 75.625V75.1755L57.9016 76.2313C57.8094 76.2544 57.7132 76.2561 57.6203 76.2364C57.5274 76.2167 57.4402 76.1761 57.3654 76.1176C57.2905 76.0592 57.2299 75.9844 57.1883 75.8991C57.1467 75.8137 57.125 75.72 57.125 75.625V73.125C57.125 72.9856 57.1716 72.8502 57.2574 72.7404C57.3432 72.6305 57.4632 72.5525 57.5984 72.5187L62.125 71.387V65H55.875V75.625ZM59 66.25C59.3708 66.25 59.7334 66.36 60.0417 66.566C60.35 66.772 60.5904 67.0649 60.7323 67.4075C60.8742 67.7501 60.9113 68.1271 60.839 68.4908C60.7666 68.8545 60.588 69.1886 60.3258 69.4508C60.0636 69.713 59.7295 69.8916 59.3658 69.964C59.0021 70.0363 58.6251 69.9992 58.2825 69.8573C57.9399 69.7154 57.647 69.475 57.441 69.1667C57.235 68.8584 57.125 68.4958 57.125 68.125C57.1256 67.6279 57.3233 67.1513 57.6748 66.7998C58.0263 66.4483 58.5029 66.2506 59 66.25Z" fill="white"/>
</svg>
