<svg width="142" height="135" viewBox="0 0 142 135" fill="none" xmlns="http://www.w3.org/2000/svg">
<path opacity="0.5" d="M121.316 18.7846C136.15 32.2765 141.441 52.3894 141.079 72.4384C140.726 92.071 134.833 111.905 119.419 124.069C104.024 136.219 83.5288 136.576 64.23 133.088C43.2939 129.304 21.7239 122.663 10.7595 104.431C-1.39884 84.2129 -3.9097 58.3991 6.61842 37.2862C17.0429 16.3812 39.3355 4.59747 62.3974 0.877387C83.7176 -2.56175 105.339 4.25408 121.316 18.7846Z" fill="#B40101"/>
<path d="M114.343 26.0017C126.98 37.4948 131.487 54.628 131.179 71.7068C130.878 88.4308 125.858 105.326 112.727 115.689C99.6133 126.038 82.1542 126.342 65.7145 123.371C47.88 120.148 29.5055 114.491 20.1655 98.9596C9.80839 81.7369 7.66951 59.7474 16.6379 41.7623C25.518 23.9543 44.508 13.9164 64.1533 10.7474C82.315 7.81777 100.734 13.6238 114.343 26.0017Z" fill="#B40101"/>
<g clip-path="url(#clip0)">
<path d="M89.0605 64.2822C88.8488 63.9711 88.4998 63.78 88.1233 63.7695L87.2241 63.7451C86.5359 65.2784 85.2406 66.43 83.6277 66.9266L81.5816 72.5488C81.5744 72.5684 81.5623 72.5846 81.5549 72.604L84.158 74.6688C84.4461 74.8987 84.8348 74.9833 85.2051 74.8782C85.5667 74.7766 85.8585 74.5052 85.9867 74.1516L89.1922 65.3421C89.3215 64.9885 89.2723 64.5936 89.0605 64.2822Z" fill="white"/>
<path d="M74.4339 67.8563C73.4961 68.0534 72.4087 67.9631 71.4106 67.5999L54.4515 61.4284L54.4503 61.4281C54.0738 61.2906 53.7203 61.1177 53.391 60.9156L52.9498 62.1278C52.2858 63.9522 53.2266 65.9697 55.051 66.6338L74.8727 73.8483C76.6971 74.5125 78.7146 73.5716 79.3786 71.7471L81.0048 67.2792L74.4339 67.8563Z" fill="white"/>
<path d="M83.4883 57.0312L59.2622 48.2134C57.4281 47.5467 55.4189 48.4948 54.7557 50.3146L53.1529 54.7188C52.4847 56.5522 53.435 58.5626 55.2541 59.2256L72.2062 65.395C72.7776 65.6038 73.4941 65.6911 74.0634 65.5358L82.7449 64.7737C83.8904 64.4945 84.8151 63.6671 85.2168 62.5604L85.5895 61.5368C86.2563 59.7072 85.3117 57.6957 83.4883 57.0312ZM64.9662 56.5246C64.7449 57.1327 64.0724 57.4462 63.4642 57.225L59.0595 55.6218C58.4512 55.4003 58.1377 54.7279 58.3589 54.1198C58.5803 53.5115 59.2528 53.1981 59.861 53.4194L64.2658 55.0226C64.8739 55.2439 65.1876 55.9163 64.9662 56.5246Z" fill="white"/>
<path d="M65.6274 72.9777V76.1251C65.6274 77.4172 64.5756 78.4689 63.2836 78.4689H57.4242V77.297C57.4242 75.3554 55.8503 73.7814 53.9086 73.7814C53.2614 73.7814 52.7368 74.3059 52.7368 74.9533V86.8282C52.7368 87.4754 53.2614 88.0001 53.9086 88.0001C55.8503 88.0001 57.4242 86.4261 57.4242 84.4845V83.1564H63.2836C67.1609 83.1564 70.3148 80.0024 70.3148 76.1251V74.6842L65.6274 72.9777Z" fill="white"/>
</g>
<defs>
<clipPath id="clip0">
<rect width="40" height="40" fill="white" transform="translate(51 48)"/>
</clipPath>
</defs>
</svg>
