<svg width="147" height="135" viewBox="0 0 147 135" fill="none" xmlns="http://www.w3.org/2000/svg">
<path opacity="0.5" d="M90.7326 4.22C112.36 10.0182 135.693 18.7369 143.902 39.5693C152.051 60.2495 141.165 82.5998 128.929 101.157C117.945 117.818 101.643 129.661 82.0391 133.396C61.6723 137.276 40.066 134.467 24.2105 121.108C7.66964 107.172 -0.973026 85.9499 0.0871811 64.3466C1.167 42.3436 11.3565 21.1335 29.7145 8.95633C47.6006 -2.90786 70.0014 -1.33792 90.7326 4.22Z" fill="#B40101"/>
<path d="M88.2907 13.5948C106.714 18.534 126.59 25.9611 133.583 43.7072C140.525 61.3237 131.252 80.3628 120.829 96.1708C111.471 110.363 97.5844 120.452 80.8852 123.633C63.5356 126.939 45.1303 124.546 31.6237 113.166C17.5334 101.294 10.1711 83.2166 11.0743 64.8138C11.9941 46.0705 20.674 28.0026 36.3123 17.6295C51.5487 7.52293 70.6308 8.86029 88.2907 13.5948Z" fill="#B40101"/>
<path d="M98.7991 48H75.2796C74.665 48 74.1622 48.5028 74.1622 49.1173V86.771C74.1622 87.3855 74.665 87.8883 75.2796 87.8883H98.7991C99.4136 87.8883 99.9164 87.3855 99.9164 86.771V49.1173C99.9164 48.5028 99.4136 48 98.7991 48ZM79.665 70.0615C78.5086 70.0615 77.5701 69.1229 77.5701 67.9665C77.5701 66.8101 78.5086 65.8715 79.665 65.8715C80.8215 65.8715 81.76 66.8101 81.76 67.9665C81.76 69.1229 80.8215 70.0615 79.665 70.0615Z" fill="white"/>
<path d="M47.3634 82.8213C47.4695 83.352 47.9388 83.7151 48.4583 83.7151C48.531 83.7151 48.6092 83.7095 48.6818 83.6928L55.7712 82.2347C56.2628 82.1341 56.6259 81.7151 56.6595 81.2179L56.9947 76.3911L60.6148 80.4078L59.6595 86.4414C59.5645 87.0503 59.9779 87.6257 60.5868 87.7207L62.2684 87.9889C62.3298 88 62.3857 88 62.4416 88C62.9835 88 63.4583 87.609 63.5421 87.0559L64.7042 79.6928C64.7544 79.3576 64.6539 79.0224 64.4304 78.771L60.1399 73.9944L62.7768 70.2347L62.9555 72.5363C62.9778 72.8436 63.1454 73.1173 63.4025 73.2849L68.1454 76.3519C68.3354 76.4748 68.5421 76.5307 68.7488 76.5307C69.1176 76.5307 69.475 76.3519 69.6874 76.0223L70.6148 74.5921C70.95 74.0725 70.7991 73.3798 70.2852 73.0446L66.7656 70.7709L66.369 65.6759C66.341 65.3519 66.179 65.0502 65.9109 64.8602L61.8215 61.8882C61.665 61.7765 61.4807 61.7038 61.2852 61.6815L53.3299 60.81C53.2907 60.8044 53.2461 60.8044 53.2069 60.8044C52.7097 60.8044 52.2684 61.134 52.1343 61.62L50.5868 67.134C50.4192 67.7262 50.7656 68.3463 51.3634 68.5139L53.0002 68.972C53.1008 68.9999 53.2014 69.011 53.3019 69.011C53.788 69.011 54.2405 68.687 54.3745 68.1954L55.274 64.9831L58.8438 65.3742L53.4583 72.5864C53.3299 72.7597 53.2516 72.9664 53.2405 73.1842L52.8829 78.8044L47.8941 79.8323C47.2907 79.9608 46.8997 80.5473 47.0226 81.1508L47.3634 82.8213Z" fill="white"/>
<path d="M67.5924 62.6257C70.1039 62.6257 72.1399 60.5897 72.1399 58.0782C72.1399 55.5667 70.1039 53.5307 67.5924 53.5307C65.0809 53.5307 63.0449 55.5667 63.0449 58.0782C63.0449 60.5897 65.0809 62.6257 67.5924 62.6257Z" fill="white"/>
</svg>
