<svg width="131" height="135" viewBox="0 0 131 135" fill="none" xmlns="http://www.w3.org/2000/svg">
<path opacity="0.5" d="M118.176 20.6821C131.478 36.8017 131.854 59.0182 127.726 79.506C123.556 100.2 115.029 121.499 96.0139 130.667C77.3026 139.689 55.3296 133.377 37.2639 123.123C21.2212 114.018 12.3589 97.7668 6.96555 80.1264C1.0552 60.795 -4.9691 39.1361 6.49557 22.4869C18.4294 5.15631 41.09 0.356379 62.1293 0.0163677C83.0755 -0.32214 104.842 4.52436 118.176 20.6821Z" fill="#B40101"/>
<path d="M110.668 27.618C122 41.3496 122.32 60.2748 118.804 77.7274C115.252 95.3552 107.987 113.499 91.7896 121.309C75.8503 128.995 57.1326 123.617 41.7433 114.883C28.0773 107.126 20.528 93.2829 15.9336 78.2558C10.8989 61.7883 5.76706 43.3382 15.5333 29.1555C25.6991 14.3924 45.0026 10.3036 62.9249 10.0139C80.768 9.72558 99.3098 13.8541 110.668 27.618Z" fill="#B40101"/>
<path d="M76.4715 51.5044C74.408 51.2312 70.6685 50.5909 68.5805 49.3798C67.2797 48.6253 65.7137 47.6589 64.1518 48.1197C63.2098 48.397 62.3248 48.8904 61.4807 49.3798C59.3927 50.5909 55.6491 51.2312 53.5897 51.5044C52.9495 51.5901 52.6436 52.3363 53.0392 52.8461L57.3782 58.4574C58.255 57.756 59.2174 57.181 60.2573 56.7406C61.7702 56.1003 63.377 55.7782 65.0326 55.7782C66.6884 55.7782 68.2951 56.1044 69.808 56.7406C70.8479 57.181 71.8103 57.756 72.6871 58.4574L77.0302 52.8502C77.4176 52.3363 77.1117 51.5901 76.4715 51.5044Z" fill="white"/>
<path d="M81.4956 56.5326C81.7688 58.592 82.4091 62.3356 83.6203 64.4236C84.3747 65.7244 85.3412 67.2904 84.8803 68.8523C84.603 69.7943 84.1096 70.6793 83.6203 71.5234C82.4091 73.6113 81.7689 77.355 81.4956 79.4144C81.41 80.0546 80.6637 80.3604 80.154 79.9649L74.5426 75.6218C75.244 74.7451 75.819 73.7826 76.2595 72.7427C76.8997 71.2298 77.2219 69.623 77.2219 67.9674C77.2219 66.3116 76.8956 64.7049 76.2595 63.192C75.819 62.1521 75.244 61.1897 74.5426 60.3129L80.1498 55.9698C80.6637 55.5825 81.41 55.8883 81.4956 56.5326Z" fill="white"/>
<path d="M53.5326 84.4956C55.592 84.7688 59.3356 85.409 61.4236 86.6202C62.7245 87.3746 64.2905 88.3411 65.8523 87.8803C66.7944 87.603 67.6793 87.1096 68.5234 86.6202C70.6114 85.4091 74.355 84.7688 76.4144 84.4956C77.0547 84.4099 77.3605 83.6636 76.9649 83.1539L72.6259 77.5425C71.7492 78.244 70.7867 78.819 69.7469 79.2594C68.2339 79.8996 66.6272 80.2218 64.9715 80.2218C63.3158 80.2218 61.709 79.8956 60.1961 79.2594C59.1562 78.819 58.1938 78.244 57.317 77.5425L52.978 83.1498C52.5824 83.6636 52.8924 84.4099 53.5326 84.4956Z" fill="white"/>
<path d="M48.5085 79.4674C48.2312 77.408 47.5909 73.6685 46.3798 71.5764C45.6253 70.2755 44.6589 68.7096 45.1197 67.1477C45.397 66.2056 45.8904 65.3207 46.3798 64.4766C47.5909 62.3886 48.2312 58.645 48.5044 56.5856C48.5901 55.9454 49.3363 55.6395 49.8461 56.0351L55.4534 60.3782C54.7519 61.2549 54.1769 62.2173 53.7365 63.2572C53.0963 64.7702 52.7741 66.3769 52.7741 68.0326C52.7741 69.6883 53.1003 71.295 53.7365 72.808C54.1769 73.8479 54.7519 74.8103 55.4534 75.6871L49.8502 80.022C49.3404 80.4176 48.5901 80.1117 48.5085 79.4674Z" fill="white"/>
<path d="M65.0286 57.4379C62.5206 57.4379 60.2165 58.3106 58.4018 59.7624C57.7982 60.2436 57.2518 60.7941 56.7665 61.3936C55.3025 63.2165 54.4257 65.5246 54.4257 68.0408C54.4257 70.5488 55.2943 72.8488 56.7502 74.6635C57.2355 75.267 57.7819 75.8175 58.3855 76.3028C60.2043 77.7668 62.5124 78.6436 65.0286 78.6436C67.5447 78.6436 69.8529 77.7668 71.6717 76.3028C72.2752 75.8175 72.8258 75.267 73.307 74.6635C74.7588 72.8488 75.6314 70.5447 75.6314 68.0408C75.6314 65.5246 74.7547 63.2124 73.2907 61.3977C72.8054 60.7941 72.2589 60.2477 71.6554 59.7665C69.8406 58.3106 67.5365 57.4379 65.0286 57.4379ZM68.2258 75.6667C67.9933 75.8012 67.7283 75.5851 67.8384 75.3404C68.0137 74.9571 68.1075 74.533 68.1075 74.0844C68.1075 74.0803 68.1075 74.0762 68.1075 74.0762C68.1116 73.9988 68.1646 72.9385 67.3572 71.7314C66.6884 70.7323 65.5424 69.2316 65.31 68.2773C65.257 68.0693 64.9838 68.0122 64.8533 68.1795C64.6208 68.473 64.3802 68.8686 64.3068 69.3009C64.1682 70.1369 64.3966 70.8424 63.5646 71.3848C62.6226 72.0006 61.9824 72.9263 61.9824 74.0804C61.9824 74.5331 62.0802 74.9571 62.2556 75.3445C62.3657 75.5892 62.0884 75.8217 61.8682 75.6708C60.4083 74.6636 59.454 72.9752 59.454 71.0667C59.454 69.0155 60.5592 67.2171 62.2108 66.2465C62.325 66.1812 62.4677 66.2465 62.4921 66.3729C62.5859 66.8623 62.9448 67.1273 63.3811 67.1273C63.8664 67.1273 64.311 66.6991 64.2824 66.2057C64.262 65.9406 64.156 65.696 64.054 65.4553C63.948 65.2026 63.8624 64.9456 63.7971 64.6805C63.5932 63.869 63.5606 62.9923 63.74 62.1767C63.8338 61.7403 64.001 61.3244 64.2049 60.9288C64.4414 60.4639 64.8247 60.0439 64.8288 60.0398C65.0368 59.7992 65.4364 59.9093 65.4854 60.2233C65.7546 61.9401 67.9893 64.8682 69.2739 66.7807C71.0436 69.4191 71.374 73.8112 68.2258 75.6667Z" fill="white"/>
</svg>
