<svg width="119" height="120" viewBox="0 0 119 120" fill="none" xmlns="http://www.w3.org/2000/svg">
<path opacity="0.5" d="M110.428 21.9272C121.654 36.1227 119.934 54.8066 116.036 72.1221C112.139 89.4305 106.002 107.756 89.2878 115.834C72.435 123.978 52.4654 119 35.5177 111.032C19.3049 103.41 5.66261 91.0876 1.3765 74.5055C-2.90318 57.9483 3.21955 41.1266 13.8917 27.3659C24.993 13.0521 40.2939 1.16041 59.0808 0.101972C78.8017 -1.00909 98.6266 7.00448 110.428 21.9272Z" fill="#B40101"/>
<path d="M98.6914 28.2726C107.504 40.1023 106.154 55.6721 103.094 70.1018C100.035 84.5254 95.2169 99.7971 82.0955 106.528C68.8652 113.315 53.188 109.166 39.8832 102.527C27.1553 96.1754 16.4454 85.9063 13.0806 72.0879C9.72085 58.2903 14.5275 44.2722 22.9057 32.805C31.6208 20.8767 43.6327 10.967 58.3814 10.085C73.8633 9.15909 89.4269 15.8371 98.6914 28.2726Z" fill="#B40101"/>
<g clip-path="url(#clip0)">
<path d="M40.6949 44.834C40.4263 44.9862 40.2944 45.3007 40.3742 45.599C40.454 45.8972 40.7252 46.1039 41.0339 46.1018C41.2915 46.1018 41.0339 46.1967 45.3864 43.7153C45.7846 44.3926 46.5373 44.78 47.3199 44.7105C48.1025 44.6409 48.775 44.1268 49.0475 43.3899H52.6068C53.1336 43.3899 53.6389 43.5992 54.0114 43.9717C54.3839 44.3443 54.5932 44.8495 54.5932 45.3764C54.5921 46.9113 55.6387 48.2489 57.1288 48.617L58.7898 49.0306C58.7235 49.3621 58.9115 49.6917 59.2305 49.8035L63.7322 51.3357C63.9148 51.3981 64.1153 51.3798 64.2836 51.2853C64.4518 51.1909 64.5718 51.0292 64.6136 50.8408L65.1627 48.3458C65.2043 48.1575 65.1637 47.9604 65.0512 47.8038C64.9386 47.6473 64.7646 47.546 64.5729 47.5255L59.8271 47.0238C59.4841 46.9882 59.1689 47.2158 59.0949 47.5526L59.061 47.7086L57.4407 47.3018C56.5608 47.0779 55.946 46.2843 55.9492 45.3764C55.9492 43.5304 54.4527 42.034 52.6068 42.034H49.0407C48.7435 41.2392 47.9841 40.7124 47.1356 40.7124C46.2871 40.7124 45.5277 41.2392 45.2305 42.034H39.678C39.3035 42.034 39 42.3375 39 42.712C39 43.0864 39.3035 43.3899 39.678 43.3899H43.2237L40.6949 44.834Z" fill="white"/>
<path d="M41.0336 77.9663C41.0336 78.3407 41.3372 78.6442 41.7116 78.6442H52.5591C52.9335 78.6442 53.237 78.3407 53.237 77.9663V75.9324H41.0336V77.9663Z" fill="white"/>
<path d="M43.7455 54.9153H50.5251V66.4407H43.7455V54.9153Z" fill="white"/>
<path d="M41.0341 54.2375L41.034 74.5765H53.2375L53.2375 54.2375C53.2409 53.0299 52.882 51.849 52.207 50.8477H42.0375C41.3758 51.8538 41.0267 53.0333 41.0341 54.2375ZM42.39 54.9155C42.39 54.1666 42.9971 53.5595 43.746 53.5595H50.5256C51.2745 53.5595 51.8816 54.1666 51.8816 54.9155V66.4409C51.8816 67.1897 51.2745 67.7968 50.5256 67.7968H43.746C42.9971 67.7968 42.39 67.1897 42.39 66.4409V54.9155ZM43.068 69.1527H51.2036C51.578 69.1527 51.8816 69.4563 51.8816 69.8307C51.8816 70.2051 51.578 70.5087 51.2036 70.5087H43.068C42.6936 70.5087 42.39 70.2051 42.39 69.8307C42.39 69.4563 42.6936 69.1527 43.068 69.1527Z" fill="white"/>
<path d="M45.7794 45.8169V47.2949C45.7767 47.8556 45.4291 48.3568 44.9049 48.5559C44.3258 48.7863 43.7843 49.1016 43.2981 49.4915H50.9659C50.4854 49.1005 49.9481 48.7851 49.3727 48.5559C48.8458 48.359 48.4951 47.8573 48.4913 47.2949V45.8169C47.6267 46.1942 46.644 46.1942 45.7794 45.8169Z" fill="white"/>
<path d="M65.651 72.8746C64.8442 74.9085 66.329 78.6441 68.8306 78.6441C72.2883 78.6441 74.0781 71.4916 69.4137 69.8306C70.0578 71.8645 67.7798 73.8509 65.651 72.8746Z" fill="white"/>
<path d="M63.7456 63.1865C64.6677 65.0848 65.5965 68.4069 62.8236 68.4069C61.027 68.4069 60.3965 67.0509 60.1728 66.0408C60.1401 65.8966 60.0179 65.7902 59.8706 65.7778C59.7233 65.7654 59.585 65.8498 59.5287 65.9865C59.1355 66.9153 58.6609 68.6713 58.6609 71.7289C58.6609 76.1085 62.2406 78.5085 66.3965 79.1255C64.4561 77.4838 63.6599 74.8562 64.3626 72.4136C64.4923 72.0553 64.7669 71.768 65.119 71.6223C65.4712 71.4765 65.8684 71.4857 66.2134 71.6475C66.6733 71.8582 67.2121 71.7954 67.6112 71.4847C68.0102 71.174 68.2032 70.667 68.1117 70.1696C67.987 69.686 68.1381 69.1729 68.5051 68.8343C68.8722 68.4956 69.3957 68.3861 69.8677 68.5492C74.749 70.2984 74.3762 76.7323 71.2643 79.1255C75.4202 78.4746 78.9999 76.1085 78.9999 71.7289C78.9999 68.6713 78.5253 66.9153 78.1321 65.9865C78.0758 65.8498 77.9375 65.7654 77.7902 65.7778C77.6429 65.7902 77.5207 65.8966 77.488 66.0408C77.2643 67.0238 76.6338 68.4069 74.8372 68.4069C72.0643 68.4069 72.9931 65.0848 73.9151 63.1865C74.6948 61.5933 75.7999 58.6509 73.0948 56.3391C71.8134 55.2475 70.0168 53.9052 69.1151 52.373C69.0578 52.2694 68.9488 52.2051 68.8304 52.2051C68.712 52.2051 68.603 52.2694 68.5457 52.373C67.644 53.9052 65.8338 55.2475 64.566 56.3391C61.8609 58.6509 62.966 61.5933 63.7456 63.1865Z" fill="white"/>
</g>
<defs>
<clipPath id="clip0">
<rect width="40" height="40" fill="white" transform="translate(39 40)"/>
</clipPath>
</defs>
</svg>
