<svg width="141" height="135" viewBox="0 0 141 135" fill="none" xmlns="http://www.w3.org/2000/svg">
<path opacity="0.5" d="M96.6067 3.83859C117.2 11.7158 134.635 28.419 139.328 49.9616C143.798 70.4786 132.147 89.9431 118.92 106.252C106.7 121.318 90.3803 131.84 71.1102 134.073C49.6766 136.556 25.8065 134.878 11.5381 118.692C-2.81459 102.411 -1.5605 78.4485 3.4603 57.3329C8.11636 37.7513 19.7183 20.9085 37.1722 10.8846C55.3737 0.43149 77.0025 -3.66046 96.6067 3.83859Z" fill="#B40101"/>
<path d="M92.2946 13.2699C109.837 19.9801 124.689 34.2088 128.687 52.5599C132.495 70.0373 122.57 86.6182 111.302 100.511C100.893 113.345 86.9906 122.308 70.5754 124.21C52.3171 126.325 31.9833 124.896 19.8287 111.108C7.60238 97.239 8.67069 76.8265 12.9477 58.8391C16.9139 42.1585 26.797 27.811 41.6652 19.2721C57.1702 10.3676 75.5947 6.88183 92.2946 13.2699Z" fill="#B40101"/>
<path d="M70 73C71.7259 73 73.125 71.6009 73.125 69.875C73.125 68.1491 71.7259 66.75 70 66.75C68.2741 66.75 66.875 68.1491 66.875 69.875C66.875 71.6009 68.2741 73 70 73Z" fill="white"/>
<path d="M61.875 71.0746L63.3745 69.875L61.875 68.6754V71.0746Z" fill="white"/>
<path d="M79.6875 61.75H60.3125C60.0639 61.7503 59.8256 61.8491 59.6499 62.0249C59.4741 62.2006 59.3753 62.4389 59.375 62.6875V77.0625C59.3753 77.3111 59.4741 77.5494 59.6499 77.7251C59.8256 77.9009 60.0639 77.9997 60.3125 78H79.6875C79.9361 77.9997 80.1744 77.9009 80.3501 77.7251C80.5259 77.5494 80.6247 77.3111 80.625 77.0625V62.6875C80.6247 62.4389 80.5259 62.2006 80.3501 62.0249C80.1744 61.8491 79.9361 61.7503 79.6875 61.75ZM63.125 65.1875C63.1257 64.6075 63.3563 64.0515 63.7664 63.6414C64.1765 63.2313 64.7325 63.0007 65.3125 63H74.6875C75.2675 63.0007 75.8235 63.2313 76.2336 63.6414C76.6437 64.0515 76.8743 64.6075 76.875 65.1875V66.75H75.625V65.1875C75.6247 64.9389 75.5259 64.7006 75.3501 64.5249C75.1744 64.3491 74.9361 64.2503 74.6875 64.25H65.3125C65.0639 64.2503 64.8256 64.3491 64.6499 64.5249C64.4741 64.7006 64.3753 64.9389 64.375 65.1875V66.75H63.125V65.1875ZM74.375 69.875C74.375 70.7403 74.1184 71.5862 73.6377 72.3056C73.1569 73.0251 72.4737 73.5858 71.6742 73.917C70.8748 74.2481 69.9951 74.3347 69.1465 74.1659C68.2978 73.9971 67.5183 73.5804 66.9064 72.9686C66.2946 72.3567 65.8779 71.5772 65.7091 70.7285C65.5403 69.8799 65.6269 69.0002 65.958 68.2008C66.2892 67.4013 66.8499 66.7181 67.5694 66.2373C68.2888 65.7566 69.1347 65.5 70 65.5C71.1599 65.5013 72.272 65.9627 73.0922 66.7828C73.9123 67.603 74.3737 68.7151 74.375 69.875ZM61.25 73C61.0842 73 60.9253 72.9342 60.8081 72.8169C60.6908 72.6997 60.625 72.5408 60.625 72.375V67.375C60.625 67.2572 60.6582 67.1419 60.7209 67.0422C60.7836 66.9425 60.8732 66.8625 60.9793 66.8115C61.0854 66.7605 61.2038 66.7405 61.3208 66.7539C61.4378 66.7672 61.5487 66.8134 61.6406 66.887L64.7656 69.387C64.8388 69.4455 64.8979 69.5198 64.9385 69.6043C64.9791 69.6887 65.0002 69.7813 65.0002 69.875C65.0002 69.9687 64.9791 70.0613 64.9385 70.1457C64.8979 70.2302 64.8388 70.3045 64.7656 70.363L61.6406 72.863C61.5298 72.9517 61.392 73 61.25 73ZM76.875 74.5625C76.8743 75.1425 76.6437 75.6985 76.2336 76.1086C75.8235 76.5187 75.2675 76.7493 74.6875 76.75H65.3125C64.7325 76.7493 64.1765 76.5187 63.7664 76.1086C63.3563 75.6985 63.1257 75.1425 63.125 74.5625V73H64.375V74.5625C64.3753 74.8111 64.4741 75.0494 64.6499 75.2251C64.8256 75.4009 65.0639 75.4997 65.3125 75.5H74.6875C74.9361 75.4997 75.1744 75.4009 75.3501 75.2251C75.5259 75.0494 75.6247 74.8111 75.625 74.5625V73H76.875V74.5625ZM79.375 72.375C79.375 72.4928 79.3418 72.6081 79.2791 72.7078C79.2164 72.8075 79.1268 72.8875 79.0207 72.9385C78.9146 72.9895 78.7962 73.0095 78.6792 72.9961C78.5622 72.9828 78.4513 72.9366 78.3594 72.863L75.2344 70.363C75.1612 70.3045 75.1021 70.2302 75.0615 70.1457C75.0209 70.0613 74.9998 69.9687 74.9998 69.875C74.9998 69.7813 75.0209 69.6887 75.0615 69.6043C75.1021 69.5198 75.1612 69.4455 75.2344 69.387L78.3594 66.887C78.4513 66.8134 78.5622 66.7672 78.6792 66.7539C78.7962 66.7405 78.9146 66.7605 79.0207 66.8115C79.1268 66.8625 79.2164 66.9425 79.2791 67.0422C79.3418 67.1419 79.375 67.2572 79.375 67.375V72.375Z" fill="white"/>
<path d="M78.1257 71.0746V68.6754L76.6263 69.875L78.1257 71.0746Z" fill="white"/>
<path d="M54.375 48V88H85.625V48H54.375ZM84.375 85.3438C84.3746 85.7166 84.2263 86.074 83.9626 86.3376C83.699 86.6013 83.3416 86.7496 82.9688 86.75H57.0312C56.6584 86.7496 56.301 86.6013 56.0374 86.3376C55.7737 86.074 55.6254 85.7166 55.625 85.3438V50.6562C55.6254 50.2834 55.7737 49.926 56.0374 49.6624C56.301 49.3987 56.6584 49.2504 57.0312 49.25H82.9688C83.3416 49.2504 83.699 49.3987 83.9626 49.6624C84.2263 49.926 84.3746 50.2834 84.375 50.6562V85.3438Z" fill="white"/>
<path d="M82.9688 50.5H57.0312C56.9898 50.5 56.9501 50.5165 56.9208 50.5458C56.8915 50.5751 56.875 50.6148 56.875 50.6562V85.3438C56.875 85.3852 56.8915 85.4249 56.9208 85.4542C56.9501 85.4835 56.9898 85.5 57.0312 85.5H82.9688C83.0102 85.5 83.0499 85.4835 83.0792 85.4542C83.1085 85.4249 83.125 85.3852 83.125 85.3438V50.6562C83.125 50.6148 83.1085 50.5751 83.0792 50.5458C83.0499 50.5165 83.0102 50.5 82.9688 50.5ZM75.625 53C75.625 52.8342 75.6908 52.6753 75.8081 52.5581C75.9253 52.4408 76.0842 52.375 76.25 52.375H78.75V53.625H76.875V54.875H78.75V56.125H76.875V57.375H78.75V58.625H76.25C76.0842 58.625 75.9253 58.5592 75.8081 58.4419C75.6908 58.3247 75.625 58.1658 75.625 58V53ZM70 53C70 52.8342 70.0658 52.6753 70.1831 52.5581C70.3003 52.4408 70.4592 52.375 70.625 52.375H73.125C73.2908 52.375 73.4497 52.4408 73.5669 52.5581C73.6842 52.6753 73.75 52.8342 73.75 53V54.7188C73.7501 54.9108 73.7107 55.1008 73.6344 55.277C73.5581 55.4532 73.4464 55.6118 73.3063 55.7431C73.5946 56.1225 73.7505 56.586 73.75 57.0625V58.625H72.5V57.0625C72.4997 56.8139 72.4009 56.5756 72.2251 56.3999C72.0494 56.2241 71.8111 56.1253 71.5625 56.125H71.25V58.625H70V53ZM66.875 52.375H68.125V58.625H66.875V52.375ZM61.875 53C61.875 52.8342 61.9408 52.6753 62.0581 52.5581C62.1753 52.4408 62.3342 52.375 62.5 52.375H65V53.625H63.125V54.875H65V56.125H63.125V58.625H61.875V53ZM58.125 51.75H59.375V53H58.125V51.75ZM59.375 84.25H58.125V83H59.375V84.25ZM75 83H65V81.75H75V83ZM81.875 84.25H80.625V83H81.875V84.25ZM81.875 77.0625C81.8743 77.6425 81.6437 78.1985 81.2336 78.6086C80.8235 79.0187 80.2675 79.2493 79.6875 79.25H60.3125C59.7325 79.2493 59.1765 79.0187 58.7664 78.6086C58.3563 78.1985 58.1257 77.6425 58.125 77.0625V62.6875C58.1257 62.1075 58.3563 61.5515 58.7664 61.1414C59.1765 60.7313 59.7325 60.5007 60.3125 60.5H79.6875C80.2675 60.5007 80.8235 60.7313 81.2336 61.1414C81.6437 61.5515 81.8743 62.1075 81.875 62.6875V77.0625ZM81.875 53H80.625V51.75H81.875V53Z" fill="white"/>
<path d="M72.5 54.7188V53.625H71.25V54.875H72.3438C72.3852 54.875 72.4249 54.8585 72.4542 54.8292C72.4835 54.7999 72.5 54.7602 72.5 54.7188Z" fill="white"/>
</svg>
