<svg width="136" height="135" viewBox="0 0 136 135" fill="none" xmlns="http://www.w3.org/2000/svg">
<path opacity="0.5" d="M85.5547 6.4361C104.158 12.9891 122.04 23.0585 129.757 41.2098C138.145 60.9388 137.421 83.921 126.287 102.241C114.875 121.017 94.7457 133.504 72.8176 134.897C51.8828 136.227 33.0157 124.553 18.8681 109.065C5.47838 94.4066 -1.72623 75.3112 0.35405 55.5671C2.47213 35.4643 12.2187 16.0729 29.7299 5.97509C46.6904 -3.80517 67.0886 -0.068624 85.5547 6.4361Z" fill="#B40101"/>
<path d="M82.88 15.4826C98.7272 21.0648 113.96 29.6424 120.534 45.1047C127.679 61.9108 127.063 81.4882 117.578 97.0941C107.857 113.089 90.7093 123.725 72.0298 124.912C54.1965 126.045 38.1245 116.101 26.0729 102.907C14.6668 90.4204 8.52951 74.154 10.3016 57.335C12.1059 40.2103 20.4085 23.6918 35.3255 15.0899C49.7733 6.75856 67.1495 9.94154 82.88 15.4826Z" fill="#B40101"/>
<path d="M81.9607 59.1345C81.257 58.9403 80.4601 58.8433 79.6068 58.8433C78.6118 58.8433 77.54 58.9808 76.4885 59.2598C75.6796 59.4742 74.8666 59.7735 74.0941 60.1618C71.178 61.6178 67.7968 61.7189 67.7968 61.7189C67.7968 61.7189 64.4076 61.6178 61.4915 60.1618C60.719 59.7775 59.9101 59.4782 59.1012 59.2639C58.0497 58.9808 56.9657 58.8433 55.9627 58.8433C55.1093 58.8433 54.3085 58.9444 53.6007 59.1385C53.2286 59.2396 52.9738 59.5955 53.0021 59.9798C53.1073 61.3023 53.354 64.4813 57.5603 67.6562V63.2315C57.5603 63.2315 58.4905 63.5591 59.1781 64.0283V67.0819C59.1781 71.8342 63.0365 75.7047 67.7888 75.7047H67.7928C72.5451 75.7047 76.4076 71.8342 76.4076 67.0819V64C77.0952 63.547 77.9445 63.2315 77.9445 63.2315V67.6562C82.1912 64.4813 82.4299 61.3064 82.5391 59.9757C82.5714 59.5915 82.3328 59.2356 81.9607 59.1345Z" fill="white"/>
<path d="M69.7423 48H65.8474C65.4025 48 65.0466 48.364 65.0466 48.8089V49.5814C61.6492 50.4388 59.1012 53.5207 59.1012 57.1972V57.5329C60.0719 57.7755 61.0506 58.1234 61.9445 58.5682C64.4763 59.8342 67.4652 60.004 67.7968 60.0162C68.1325 60 71.1133 59.8301 73.6452 58.5682C74.543 58.1193 75.5218 57.7715 76.4924 57.5288V57.1931C76.4924 53.5167 73.9444 50.4348 70.547 49.5774V48.8089C70.5431 48.364 70.1872 48 69.7423 48ZM67.7726 56.4853C66.7129 56.4853 65.8515 55.6239 65.8515 54.5642C65.8515 54.3013 65.904 54.0667 66.0011 53.8241C66.2923 53.1365 66.9758 52.6431 67.7726 52.6431C68.5694 52.6431 69.2569 53.1365 69.5441 53.8241C69.6412 54.0667 69.6937 54.3013 69.6937 54.5642C69.6937 55.6279 68.8323 56.4853 67.7726 56.4853Z" fill="white"/>
<path d="M70.0578 77.3226H65.5279C59.6311 77.3226 54.8505 82.1032 54.8505 88H80.7352C80.7352 82.1032 75.9546 77.3226 70.0578 77.3226Z" fill="white"/>
</svg>
