<svg width="137" height="135" viewBox="0 0 137 135" fill="none" xmlns="http://www.w3.org/2000/svg">
<path d="M100.649 22.0895C114.825 31.9357 125.842 46.7454 126.459 63.9943C127.049 80.47 115.666 93.8284 103.618 105.082C91.6433 116.267 77.6139 126.286 61.2901 124.865C43.9634 123.356 28.8989 112.568 19.7474 97.7781C10.3092 82.5249 6.94464 63.89 13.1463 47.0591C19.4496 29.9524 33.8733 16.8658 51.4045 11.8631C68.3658 7.02305 86.1621 12.0274 100.649 22.0895Z" fill="#B40101"/>
<path opacity="0.5" d="M106.414 14.192C123.055 25.7506 135.989 43.1359 136.713 63.3846C137.405 82.7256 124.043 98.4073 109.899 111.618C95.8421 124.748 79.3728 136.51 60.2101 134.841C39.87 133.07 22.1857 120.406 11.4426 103.044C0.36299 85.1379 -3.58673 63.2621 3.69349 43.5042C11.093 23.4223 28.0251 8.05987 48.6053 2.18712C68.5164 -3.49468 89.4076 2.37995 106.414 14.192Z" fill="#B40101"/>
<path d="M56.125 49.25C55.8016 49.25 56.125 48.9611 56.125 48.6197C56.125 48.2783 55.8016 48 56.125 48H85.2916C86.0379 48 86.7155 48.3227 87.2049 48.8396C87.6966 49.3588 88 50.0744 88 50.8625C88 51.6482 87.6966 52.3639 87.2049 52.8831C86.7155 53.3999 86.0379 53.7227 85.2916 53.7227H81.125C80.8016 53.7227 80.5 53.3415 80.5 53C80.5 52.6585 80.8016 52.4855 81.125 52.4855H85.2916C85.7145 52.4855 86.0977 52.3031 86.3767 52.0085C86.6558 51.7138 86.8285 51.3068 86.8285 50.8625C86.8285 50.4158 86.6558 50.0088 86.3767 49.7142C86.0977 49.4195 85.7145 49.2371 85.2916 49.2371L56.125 49.25ZM67.4154 70.914C67.4154 70.5725 67.6767 70.2965 68 70.2965C68.3233 70.2965 68.5869 70.5726 68.5869 70.914V79.7377C68.5869 80.0791 68.3234 80.355 68 80.355C67.6766 80.355 67.4154 80.079 67.4154 79.7377V70.914ZM72.1723 71.204C72.0216 70.9046 72.128 70.5304 72.4137 70.3714C72.6972 70.21 73.0515 70.3247 73.2021 70.6239L77.6402 79.3658C77.793 79.6674 77.6845 80.0393 77.4009 80.2007C77.1153 80.3597 76.761 80.2474 76.6104 79.9458L72.1723 71.204ZM79.8636 86.356C79.7108 86.0544 79.8193 85.6826 80.1027 85.5211C80.3884 85.3621 80.7405 85.4744 80.8933 85.776L81.4845 86.9431C81.6373 87.2424 81.5288 87.6165 81.2454 87.7756C80.9598 87.937 80.6077 87.8224 80.4548 87.5231L79.8636 86.356ZM77.9413 82.5674C77.7885 82.268 77.897 81.8939 78.1805 81.7348C78.4661 81.5735 78.8183 81.6881 78.971 81.9873L79.5623 83.1544C79.7152 83.4537 79.6066 83.8278 79.3232 83.9892C79.0376 84.1483 78.6854 84.0359 78.5326 83.7343L77.9413 82.5674ZM62.7979 70.624C62.9485 70.3247 63.3028 70.21 63.5885 70.3714C63.872 70.5305 63.9805 70.9047 63.8277 71.2041L59.3897 79.9459C59.2391 80.2476 58.8848 80.3598 58.6013 80.2009C58.3156 80.0395 58.2092 79.6676 58.3598 79.3659L62.7979 70.624ZM55.1088 85.776C55.2595 85.4744 55.6138 85.3621 55.8973 85.5211C56.1829 85.6826 56.2893 86.0544 56.1387 86.356L55.5452 87.523C55.3945 87.8223 55.0402 87.9369 54.7567 87.7755C54.4711 87.6165 54.3648 87.2423 54.5153 86.943L55.1088 85.776ZM57.0312 81.9874C57.1817 81.6881 57.5361 81.5735 57.8196 81.7349C58.1052 81.8939 58.2116 82.2681 58.061 82.5675L57.4674 83.7345C57.3169 84.0361 56.9625 84.1484 56.679 83.9894C56.3934 83.828 56.287 83.4539 56.4376 83.1546L57.0312 81.9874ZM70.8148 74.7517C70.724 74.4242 70.9011 74.0829 71.2112 73.9869C71.5212 73.891 71.8467 74.0781 71.9375 74.4032L72.2542 75.5327C72.345 75.8602 72.1679 76.2039 71.8578 76.2998C71.5501 76.3957 71.2245 76.2086 71.1337 75.8812L70.8148 74.7517ZM69.7827 71.0893C69.692 70.7619 69.8691 70.4181 70.1791 70.3223C70.4892 70.2264 70.8148 70.4134 70.9056 70.7409L71.2223 71.8681C71.313 72.1955 71.1359 72.5393 70.8259 72.6352C70.518 72.7311 70.1925 72.544 70.1016 72.2166L69.7827 71.0893ZM64.0647 74.4032C64.1555 74.0781 64.481 73.891 64.7889 73.9869C65.099 74.0828 65.2761 74.4242 65.1853 74.7517L64.8686 75.8812C64.7778 76.2086 64.4523 76.3957 64.1422 76.2998C63.8321 76.2039 63.655 75.8602 63.7458 75.5327L64.0647 74.4032ZM65.0967 70.741C65.1875 70.4135 65.5109 70.2265 65.8209 70.3224C66.1309 70.4182 66.308 70.762 66.2173 71.0894L65.9005 72.2167C65.8075 72.5441 65.4842 72.7311 65.1742 72.6353C64.8641 72.5394 64.687 72.1956 64.7778 71.8682L65.0967 70.741ZM77.7154 73.9355C77.4763 73.7063 77.4585 73.3181 77.6734 73.0655C77.8903 72.8129 78.2602 72.7943 78.4972 73.021L79.3255 73.8116C79.5646 74.0407 79.5823 74.4288 79.3676 74.6815C79.1506 74.9341 78.7806 74.9527 78.5415 74.7259L77.7154 73.9355ZM75.0313 71.3701C74.7921 71.1432 74.7745 70.7526 74.9893 70.5001C75.2063 70.2498 75.5739 70.2287 75.8131 70.4579L76.6414 71.2484C76.8805 71.4753 76.8983 71.8658 76.6813 72.1184C76.4665 72.371 76.0967 72.3897 75.8574 72.1606L75.0313 71.3701ZM57.5029 73.021C57.7421 72.7943 58.1097 72.8129 58.3267 73.0655C58.5437 73.3181 58.5238 73.7063 58.2846 73.9355L57.4586 74.7259C57.2194 74.9527 56.8517 74.9341 56.6348 74.6815C56.4177 74.4289 56.4377 74.0407 56.6768 73.8116L57.5029 73.021ZM60.1869 70.4579C60.4261 70.2287 60.7959 70.2498 61.0108 70.5001C61.2277 70.7526 61.2078 71.1432 60.9709 71.3701L60.1426 72.1606C59.9034 72.3897 59.5357 72.371 59.3188 72.1184C59.1017 71.8658 59.1216 71.4753 59.3608 71.2484L60.1869 70.4579ZM67.4154 86.204C67.4154 85.8625 67.6767 85.5866 68 85.5866C68.3233 85.5866 68.5869 85.8626 68.5869 86.204V87.3826C68.5869 87.7241 68.3234 88 68 88C67.6766 88 67.4154 87.724 67.4154 87.3826V86.204ZM67.4154 82.3827C67.4154 82.0412 67.6767 81.7628 68 81.7628C68.3233 81.7628 68.5869 82.0412 68.5869 82.3827V83.559C68.5869 83.9004 68.3234 84.1788 68 84.1788C67.6766 84.1788 67.4154 83.9004 67.4154 83.559V82.3827ZM65.1388 64.6371C65.1388 64.2932 65.4023 64.0173 65.7256 64.0173C66.049 64.0173 66.3102 64.2932 66.3102 64.6371V66.2367C66.3102 66.5805 66.0489 66.8565 65.7256 66.8565C65.4023 66.8565 65.1388 66.5805 65.1388 66.2367V64.6371ZM69.6898 64.6371C69.6898 64.2932 69.9511 64.0173 70.2766 64.0173C70.6 64.0173 70.8613 64.2932 70.8613 64.6371V66.2367C70.8613 66.5805 70.5999 66.8565 70.2766 66.8565C69.9511 66.8565 69.6898 66.5805 69.6898 66.2367V64.6371ZM67.4154 64.6371C67.4154 64.2932 67.6767 64.0173 68 64.0173C68.3233 64.0173 68.5869 64.2932 68.5869 64.6371V66.2367C68.5869 66.5805 68.3234 66.8565 68 66.8565C67.6766 66.8565 67.4154 66.5805 67.4154 66.2367V64.6371ZM70.5579 57.9953L74.9648 55.6707V53.7227H70.5579V57.9953ZM76.1364 53.7227V56.0495C76.1364 56.2741 76.0169 56.4915 75.8109 56.5991L70.5579 59.3751V61.8541H74.4844C74.6726 61.8541 74.8387 61.9476 74.9472 62.0926C75.0779 62.2703 75.1066 62.5112 75.0225 62.7194L73.1423 68.5964C73.0626 68.8466 72.839 69.0197 72.5887 69.0197H68C67.6766 69.0197 67.6875 68.7414 67.6875 68.3999C67.6875 68.0585 67.7268 67.7802 68.0501 67.7802H72.1702L73.6695 63.0935C69.8914 63.0935 66.111 63.0935 62.3307 63.0935L63.8299 67.7802H68.0501C68.3734 67.7802 68.2259 68.0585 68.2259 68.3999C68.2259 68.7414 68.3234 69.0197 68 69.0197H63.4113C63.1366 69.0197 62.9064 68.8185 62.8444 68.5496L60.962 62.6702C60.8955 62.4574 60.9442 62.2329 61.0705 62.0738C61.1791 61.9381 61.3473 61.8541 61.5156 61.8541H65.4421V59.3751L60.1891 56.5991C59.992 56.4962 59.8635 56.2834 59.8635 56.0495V53.7227H50.7106C49.9643 53.7227 49.2866 53.3999 48.795 52.8831C48.3056 52.364 48 51.6483 48 50.8625C48 50.0743 48.3056 49.3588 48.7951 48.8396C49.2867 48.3227 49.9644 48 50.7107 48H56.125C56.4484 48 56.125 48.2835 56.125 48.625C56.125 48.9665 56.4484 49.25 56.125 49.25L50.7106 49.2371C50.2877 49.2371 49.9023 49.4195 49.6233 49.7142C49.3443 50.0088 49.1716 50.4158 49.1716 50.8625C49.1716 51.3068 49.3443 51.7137 49.6233 52.0085C49.9023 52.3031 50.2877 52.4855 50.7106 52.4855H81.125C81.4484 52.4855 81.125 52.9711 81.125 53.3125C81.125 53.654 81.4484 53.7227 81.125 53.7227H76.1364ZM61.0373 53.7227V55.6707L65.4422 57.9953V53.7227H61.0373ZM66.6137 53.7227V61.8541H69.3863V53.7227H66.6137Z" fill="white"/>
</svg>
