<svg width="119" height="120" viewBox="0 0 119 120" fill="none" xmlns="http://www.w3.org/2000/svg">
<path opacity="0.5" d="M110.428 21.9272C121.654 36.1227 119.934 54.8066 116.036 72.1221C112.139 89.4305 106.002 107.756 89.2878 115.834C72.435 123.978 52.4654 119 35.5177 111.032C19.3049 103.41 5.66261 91.0876 1.3765 74.5055C-2.90318 57.9483 3.21955 41.1266 13.8917 27.3659C24.993 13.0521 40.2939 1.16041 59.0808 0.101972C78.8017 -1.00909 98.6266 7.00448 110.428 21.9272Z" fill="#B40101"/>
<path d="M98.6914 28.2726C107.504 40.1023 106.154 55.6721 103.094 70.1018C100.035 84.5254 95.2169 99.7971 82.0955 106.528C68.8652 113.315 53.188 109.166 39.8832 102.527C27.1553 96.1754 16.4454 85.9063 13.0806 72.0879C9.72085 58.2903 14.5275 44.2722 22.9057 32.805C31.6208 20.8767 43.6327 10.967 58.3814 10.085C73.8633 9.15909 89.4269 15.8371 98.6914 28.2726Z" fill="#B40101"/>
<path d="M71.5953 47.2067C71.3937 46.8846 69.625 44.0164 69.625 42.5C69.625 40.9346 70.5596 40 72.125 40C73.6904 40 74.625 40.9346 74.625 42.5C74.625 44.0164 72.8563 46.8846 72.6547 47.2067C72.5972 47.2947 72.5186 47.367 72.4261 47.4171C72.3336 47.4671 72.2301 47.4933 72.125 47.4933C72.0199 47.4933 71.9164 47.4671 71.8239 47.4171C71.7314 47.367 71.6528 47.2947 71.5953 47.2067Z" fill="white"/>
<path d="M74.0245 47.9524C74.102 47.6826 74.8053 45.2931 75.6317 44.4667C76.4866 43.612 77.5605 43.5128 78.399 44.3511C79.2428 45.1944 79.1404 46.269 78.2833 47.1183C77.4571 47.9447 75.0675 48.648 74.7978 48.7255C74.6908 48.7535 74.5783 48.7531 74.4716 48.7242C74.3648 48.6953 74.2675 48.639 74.1893 48.5608C74.1111 48.4826 74.0547 48.3853 74.0258 48.2785C73.9969 48.1718 73.9964 48.0593 74.0245 47.9524Z" fill="white"/>
<path d="M63.0624 63.125C61.8881 63.125 60.7402 63.4732 59.7637 64.1257C58.7873 64.7781 58.0263 65.7054 57.5769 66.7903C57.1275 67.8753 57.0099 69.0691 57.239 70.2208C57.4681 71.3726 58.0336 72.4306 58.864 73.2609C59.6944 74.0913 60.7523 74.6568 61.9041 74.8859C63.0558 75.115 64.2497 74.9974 65.3346 74.548C66.4196 74.0986 67.3469 73.3376 67.9993 72.3612C68.6517 71.3848 68.9999 70.2368 68.9999 69.0625C68.9981 67.4883 68.372 65.9791 67.2589 64.866C66.1458 63.7529 64.6366 63.1268 63.0624 63.125ZM63.0624 72.5C62.3826 72.5 61.718 72.2984 61.1527 71.9207C60.5874 71.543 60.1468 71.0061 59.8866 70.378C59.6264 69.7499 59.5584 69.0587 59.691 68.3919C59.8236 67.7251 60.151 67.1126 60.6318 66.6318C61.1125 66.1511 61.725 65.8237 62.3918 65.6911C63.0586 65.5584 63.7498 65.6265 64.3779 65.8867C65.006 66.1468 65.5429 66.5874 65.9206 67.1527C66.2983 67.718 66.4999 68.3826 66.4999 69.0625C66.4989 69.9739 66.1364 70.8476 65.492 71.4921C64.8476 72.1365 63.9738 72.499 63.0624 72.5Z" fill="white"/>
<path d="M69.4532 48.7257C69.1835 48.6482 66.7939 47.945 65.9677 47.1186C65.1105 46.2692 65.0085 45.1946 65.8517 44.3516C66.6902 43.5133 67.764 43.6125 68.6189 44.4672C69.4454 45.2932 70.1489 47.6828 70.2267 47.9525C70.2547 48.0595 70.2543 48.172 70.2254 48.2788C70.1965 48.3856 70.1401 48.4829 70.0618 48.5611C69.9836 48.6393 69.8863 48.6957 69.7795 48.7245C69.6727 48.7534 69.5602 48.7538 69.4532 48.7257Z" fill="white"/>
<path d="M74.625 54.375H73.865L73.3712 49.9309C73.3542 49.7781 73.2814 49.6369 73.1668 49.5343C73.0522 49.4317 72.9038 49.375 72.75 49.375H71.5C71.3462 49.375 71.1978 49.4317 71.0832 49.5343C70.9686 49.6369 70.8958 49.7781 70.8788 49.9309L70.385 54.375H69.625C69.4592 54.375 69.3003 54.4408 69.1831 54.5581C69.0658 54.6753 69 54.8342 69 55V56.875C69 57.0408 69.0658 57.1997 69.1831 57.3169C69.3003 57.4342 69.4592 57.5 69.625 57.5H74.625C74.7908 57.5 74.9497 57.4342 75.0669 57.3169C75.1842 57.1997 75.25 57.0408 75.25 56.875V55C75.25 54.8342 75.1842 54.6753 75.0669 54.5581C74.9497 54.4408 74.7908 54.375 74.625 54.375Z" fill="white"/>
<path d="M52.75 51.25H52.125V45.625C52.1231 45.4591 52.0561 45.3005 51.9383 45.1836C51.8206 45.0666 51.6616 45.0007 51.4956 45L49.625 45.013V43.125C49.625 42.9592 49.5592 42.8003 49.4419 42.6831C49.3247 42.5658 49.1658 42.5 49 42.5H47.125V41.25H49C49.1658 41.25 49.3247 41.1842 49.4419 41.0669C49.5592 40.9497 49.625 40.7908 49.625 40.625C49.625 40.4592 49.5592 40.3003 49.4419 40.1831C49.3247 40.0658 49.1658 40 49 40H43.9219C43.7561 40 43.5971 40.0658 43.4799 40.1831C43.3627 40.3003 43.2969 40.4592 43.2969 40.625C43.2969 40.7908 43.3627 40.9497 43.4799 41.0669C43.5971 41.1842 43.7561 41.25 43.9219 41.25H45.875V42.5H44C43.8342 42.5 43.6753 42.5658 43.5581 42.6831C43.4408 42.8003 43.375 42.9592 43.375 43.125V45.0559H40.25V44.375C40.25 44.2092 40.1842 44.0503 40.0669 43.9331C39.9497 43.8158 39.7908 43.75 39.625 43.75C39.4592 43.75 39.3003 43.8158 39.1831 43.9331C39.0658 44.0503 39 44.2092 39 44.375V50.625C39 50.7908 39.0658 50.9497 39.1831 51.0669C39.3003 51.1842 39.4592 51.25 39.625 51.25C39.7908 51.25 39.9497 51.1842 40.0669 51.0669C40.1842 50.9497 40.25 50.7908 40.25 50.625V50H47.125V51.25H46.5C46.3342 51.25 46.1753 51.3158 46.0581 51.4331C45.9408 51.5503 45.875 51.7092 45.875 51.875C45.875 52.0408 45.9408 52.1997 46.0581 52.3169C46.1753 52.4342 46.3342 52.5 46.5 52.5H52.75C52.9158 52.5 53.0747 52.4342 53.1919 52.3169C53.3092 52.1997 53.375 52.0408 53.375 51.875C53.375 51.7092 53.3092 51.5503 53.1919 51.4331C53.0747 51.3158 52.9158 51.25 52.75 51.25Z" fill="white"/>
<path d="M74 58.75H70.25V60.8252C68.2614 59.0825 65.7067 58.1228 63.0625 58.125C57.226 58.125 52.4428 62.7203 52.1406 68.4828C51.7156 67.2626 51.499 65.9796 51.5 64.6875V53.75H47.75V63.125C47.75 71.536 52.4635 79.9821 63.3143 79.9821C70.25 79.9821 74 74.8856 74 69.0625V58.75ZM63.0625 76.875C61.5173 76.875 60.0069 76.4168 58.7221 75.5584C57.4373 74.6999 56.436 73.4798 55.8447 72.0522C55.2534 70.6247 55.0987 69.0538 55.4001 67.5384C55.7016 66.0229 56.4456 64.6308 57.5382 63.5382C58.6308 62.4456 60.0229 61.7016 61.5384 61.4001C63.0538 61.0987 64.6247 61.2534 66.0522 61.8447C67.4798 62.436 68.6999 63.4373 69.5584 64.7221C70.4168 66.0069 70.875 67.5173 70.875 69.0625C70.8727 71.1338 70.0488 73.1196 68.5842 74.5842C67.1196 76.0488 65.1338 76.8727 63.0625 76.875Z" fill="white"/>
<path d="M63.0625 70.3125C63.7529 70.3125 64.3125 69.7529 64.3125 69.0625C64.3125 68.3721 63.7529 67.8125 63.0625 67.8125C62.3721 67.8125 61.8125 68.3721 61.8125 69.0625C61.8125 69.7529 62.3721 70.3125 63.0625 70.3125Z" fill="white"/>
</svg>
