<svg width="134" height="135" viewBox="0 0 134 135" fill="none" xmlns="http://www.w3.org/2000/svg">
<path opacity="0.5" d="M92.6298 13.1056C109.521 22.289 125.794 33.8171 130.91 52.3502C136.633 73.0826 134.028 96.3103 120.128 112.723C105.931 129.489 83.1751 137.19 61.3754 134.462C41.275 131.946 26.6932 116.366 15.3138 99.6071C4.4138 83.554 -3.22957 64.9216 1.3557 46.0672C6.13404 26.419 19.9447 9.22927 38.9635 2.36105C57.0166 -4.15842 75.7667 3.93757 92.6298 13.1056Z" fill="#B40101"/>
<path d="M88.9069 21.164C103.296 28.9869 117.158 38.8072 121.516 54.5946C126.391 72.2556 124.172 92.0421 112.332 106.024C100.237 120.306 80.8529 126.865 62.2828 124.541C45.1602 122.399 32.7387 109.127 23.0451 94.8505C13.7599 81.1756 7.24888 65.3036 11.1549 49.2425C15.2253 32.505 26.9899 17.862 43.1911 12.0113C58.5697 6.45764 74.542 13.3542 88.9069 21.164Z" fill="#B40101"/>
<g clip-path="url(#clip0)">
<path d="M69.5102 55.0853C69.6305 55.0853 69.7279 54.9876 69.7279 54.8673C69.7279 54.747 69.6305 54.6492 69.5102 54.6492C69.3899 54.6492 69.2922 54.747 69.2922 54.8673C69.2922 54.9876 69.3899 55.0853 69.5102 55.0853Z" fill="white"/>
<path d="M55.1815 56.5138H71.2036V53.221H55.1815V56.5138ZM69.5101 53.948C70.018 53.948 70.4296 54.3593 70.4296 54.8672C70.4296 55.3747 70.018 55.7864 69.5101 55.7864C69.0026 55.7864 68.5909 55.3747 68.5909 54.8672C68.5917 54.3597 69.0029 53.9488 69.5104 53.948H69.5101ZM66.3513 53.948C66.8592 53.948 67.2705 54.3593 67.2705 54.8672C67.2705 55.3747 66.8592 55.7864 66.3513 55.7864C65.8438 55.7864 65.4322 55.3747 65.4322 54.8672C65.4329 54.3597 65.8442 53.9488 66.3513 53.948ZM63.1926 53.948C63.7001 53.948 64.1117 54.3593 64.1117 54.8672C64.1117 55.3747 63.7001 55.7864 63.1926 55.7864C62.6851 55.7864 62.2734 55.3747 62.2734 54.8672C62.2742 54.3597 62.6854 53.9488 63.1926 53.948ZM60.0335 53.948C60.5414 53.948 60.953 54.3593 60.953 54.8672C60.953 55.3747 60.5414 55.7864 60.0335 55.7864C59.526 55.7864 59.1143 55.3747 59.1143 54.8672C59.1151 54.3597 59.5263 53.9488 60.0338 53.948H60.0335ZM56.8747 53.948C57.3826 53.948 57.7939 54.3593 57.7939 54.8672C57.7939 55.3747 57.3826 55.7864 56.8747 55.7864C56.3672 55.7864 55.9556 55.3747 55.9556 54.8672C55.9563 54.3597 56.3676 53.9488 56.8747 53.948Z" fill="white"/>
<path d="M63.1929 63.8889C63.7119 63.8889 64.1324 63.4683 64.1324 62.9493C64.1324 62.4304 63.7119 62.0098 63.1929 62.0098C62.6739 62.0098 62.2534 62.4304 62.2534 62.9493C62.2541 63.468 62.6743 63.8885 63.1929 63.8889Z" fill="white"/>
<path d="M69.7277 68.0423C69.209 68.0423 68.7881 68.4628 68.7881 68.9818C68.7881 69.5008 69.209 69.9213 69.7277 69.9213C70.2467 69.9213 70.6672 69.5008 70.6672 68.9818C70.6668 68.4632 70.2467 68.043 69.7277 68.0423Z" fill="white"/>
<path d="M63.1929 76.1553C63.7119 76.1553 64.1328 75.7348 64.1328 75.2158C64.1328 74.6968 63.7119 74.2759 63.1929 74.2762C62.6739 74.2762 62.2534 74.6971 62.2534 75.2161C62.2541 75.7348 62.6746 76.1546 63.1929 76.1553Z" fill="white"/>
<path d="M60.0339 55.0853C60.1542 55.0853 60.2516 54.9876 60.2516 54.8673C60.2516 54.747 60.1542 54.6492 60.0339 54.6492C59.9136 54.6492 59.8159 54.747 59.8159 54.8673C59.8159 54.9876 59.9136 55.0853 60.0339 55.0853Z" fill="white"/>
<path d="M66.3515 55.0853C66.4722 55.0853 66.5696 54.9876 66.5696 54.8673C66.5696 54.747 66.4722 54.6492 66.3515 54.6492C66.2312 54.6492 66.1339 54.747 66.1339 54.8673C66.1339 54.9876 66.2312 55.0853 66.3515 55.0853Z" fill="white"/>
<path d="M63.1931 55.0853C63.3134 55.0853 63.4112 54.9876 63.4112 54.8673C63.4112 54.747 63.3134 54.6492 63.1931 54.6492C63.0728 54.6492 62.9751 54.747 62.9751 54.8673C62.9751 54.9876 63.0728 55.0853 63.1931 55.0853Z" fill="white"/>
<path d="M69.7277 62.0098C69.209 62.0098 68.7881 62.4304 68.7881 62.9493C68.7881 63.4683 69.2087 63.8889 69.7277 63.8889C70.2467 63.8892 70.6672 63.4683 70.6672 62.9493C70.6668 62.4307 70.2467 62.0106 69.7277 62.0098Z" fill="white"/>
<path d="M56.8751 55.0853C56.9958 55.0853 57.0932 54.9876 57.0932 54.8673C57.0932 54.747 56.9958 54.6492 56.8751 54.6492C56.7548 54.6492 56.6575 54.747 56.6575 54.8673C56.6575 54.9876 56.7548 55.0853 56.8751 55.0853Z" fill="white"/>
<path d="M56.6572 74.2762C56.1382 74.2762 55.7177 74.6968 55.7173 75.2158C55.7173 75.7344 56.1378 76.1553 56.6568 76.1553C57.1758 76.1557 57.5963 75.7351 57.5967 75.2161C57.5963 74.6975 57.1758 74.2766 56.6572 74.2762Z" fill="white"/>
<path d="M80.3194 70.7214V51.9529C80.3231 50.7487 79.5894 49.6652 78.4703 49.2217L78.2375 49.1288C78.2382 49.1477 78.239 49.1669 78.239 49.1865V69.3621C78.9131 69.8341 79.6064 70.2868 80.3194 70.7214Z" fill="white"/>
<path d="M69.172 74.2571C69.0799 74.2986 69.021 74.3904 69.0217 74.4915V78.874C69.0217 81.0296 69.7854 82.9349 71.2946 84.5611V84.5304C71.2946 84.2161 71.5493 83.9618 71.8632 83.9618C72.1775 83.9618 72.4318 84.2161 72.4318 84.5304V85.0468C72.4318 85.2067 72.3645 85.3592 72.2456 85.4665C72.2693 85.4865 72.2938 85.5061 72.3174 85.5261C72.4 85.5654 72.4718 85.6239 72.527 85.6968C72.6521 85.7964 72.7798 85.8952 72.9119 85.9922C74.0876 86.8466 75.3825 87.5229 76.7555 88C78.1755 87.5247 79.5196 86.8469 80.7464 85.9881C81.01 85.8008 81.2606 85.6083 81.4983 85.4114C81.4124 85.3092 81.3654 85.18 81.3657 85.0468V84.5304C81.3661 84.2275 81.6041 83.978 81.9066 83.9636C82.2094 83.9488 82.4703 84.1742 82.5 84.4756C84.0118 82.8679 84.7758 80.9914 84.7758 78.8744V74.4915C84.7766 74.3904 84.7177 74.2986 84.6255 74.2568C81.8984 73.0511 79.3083 71.5574 76.8988 69.8005C74.4893 71.5574 71.8991 73.0515 69.172 74.2571ZM74.1106 85.0468C74.1106 85.361 73.8559 85.6154 73.542 85.6154C73.2277 85.6154 72.9734 85.361 72.9734 85.0468V84.5304C72.9734 84.2164 73.2277 83.9618 73.542 83.9618C73.8559 83.9618 74.1106 84.2164 74.1106 84.5304V85.0468ZM75.789 85.0468C75.789 85.361 75.5343 85.6154 75.2204 85.6154C74.9065 85.6154 74.6518 85.361 74.6518 85.0468V84.5304C74.6518 84.2164 74.9065 83.9618 75.2204 83.9618C75.5343 83.9618 75.789 84.2164 75.789 84.5304V85.0468ZM77.4674 85.0468C77.4674 85.361 77.2131 85.6154 76.8988 85.6154C76.5849 85.6154 76.3302 85.361 76.3302 85.0468V84.5304C76.3302 84.2164 76.5849 83.9618 76.8988 83.9618C77.2131 83.9618 77.4674 84.2164 77.4674 84.5304V85.0468ZM79.1458 85.0468C79.1458 85.361 78.8915 85.6154 78.5772 85.6154C78.2633 85.6154 78.0086 85.361 78.0086 85.0468V84.5304C78.0086 84.2164 78.2633 83.9618 78.5772 83.9618C78.8915 83.9618 79.1458 84.2164 79.1458 84.5304V85.0468ZM80.8245 84.5304V85.0468C80.8245 85.361 80.5698 85.6154 80.2559 85.6154C79.9417 85.6154 79.6873 85.361 79.6873 85.0468V84.5304C79.6873 84.2164 79.9417 83.9618 80.2559 83.9618C80.5698 83.9618 80.8245 84.2164 80.8245 84.5304ZM79.938 76.7618C80.1597 76.9835 80.1597 77.3437 79.938 77.5658L76.576 80.9274C76.3539 81.1495 75.9941 81.1495 75.772 80.9274L73.8596 79.015C73.6375 78.7929 73.6375 78.4331 73.8596 78.211C74.0817 77.9889 74.4419 77.9889 74.664 78.211L76.1747 79.7214L79.1343 76.7618C79.3564 76.54 79.7158 76.54 79.938 76.7618Z" fill="white"/>
<path d="M56.6572 68.0423C56.1382 68.0423 55.7177 68.4628 55.7177 68.9818C55.7177 69.5008 56.1382 69.9213 56.6572 69.9213C57.1762 69.9213 57.5967 69.5008 57.5967 68.9818C57.5959 68.4632 57.1758 68.0427 56.6572 68.0423Z" fill="white"/>
<path d="M56.6572 62.0098C56.1382 62.0098 55.7173 62.4304 55.7173 62.9493C55.7173 63.4683 56.1382 63.8889 56.6572 63.8889C57.1762 63.8889 57.5967 63.4683 57.5967 62.9493C57.5959 62.4307 57.1758 62.0106 56.6572 62.0098Z" fill="white"/>
<path d="M50.4119 83.3895L50.5048 83.6223C50.9483 84.7414 52.0318 85.4751 53.2357 85.471H70.5949C69.9937 84.8461 69.4743 84.1469 69.0494 83.3909H50.4697C50.4501 83.3909 50.4312 83.3898 50.4119 83.3895Z" fill="white"/>
<path d="M63.1929 69.9213C63.7119 69.9213 64.1324 69.5008 64.1324 68.9818C64.1324 68.4632 63.7119 68.0423 63.1929 68.0423C62.6739 68.0427 62.2534 68.4632 62.2534 68.9818C62.2541 69.5008 62.6743 69.921 63.1929 69.9213Z" fill="white"/>
<path d="M75.9156 48H50.4694C49.8145 48.0007 49.2837 48.5316 49.283 49.1864V81.0674C49.2837 81.7223 49.8145 82.2531 50.4694 82.2539H68.5112C68.0922 81.1766 67.8797 80.0302 67.8841 78.8745V74.4916C67.8838 73.9415 68.2069 73.4425 68.7093 73.2181C71.4886 71.9903 74.1213 70.454 76.5574 68.6379C76.714 68.5209 76.9199 68.4928 77.102 68.5635V49.1864C77.1012 48.5312 76.5704 48.0007 75.9156 48ZM56.6573 77.2923C55.5101 77.2923 54.5802 76.3624 54.5802 75.2153C54.5806 74.0684 55.5105 73.1385 56.6577 73.1389C57.8045 73.1389 58.7344 74.0692 58.734 75.216C58.7325 76.3624 57.8034 77.2912 56.6573 77.2923ZM56.6573 71.0585C55.5101 71.0585 54.5806 70.129 54.5806 68.9818C54.5806 67.835 55.5105 66.9051 56.6573 66.9051C57.8041 66.9055 58.734 67.835 58.734 68.9818C58.7325 70.1282 57.8038 71.0574 56.6573 71.0585ZM56.6573 65.0261C55.5101 65.0261 54.5802 64.0962 54.5802 62.9493C54.5802 61.8022 55.5101 60.8726 56.6573 60.8726C57.8041 60.8726 58.734 61.8025 58.734 62.9493C58.7325 64.0958 57.8038 65.0249 56.6573 65.0261ZM64.8031 81.0782H61.5818C61.2679 81.0782 61.0132 80.8239 61.0132 80.5096C61.0132 80.1957 61.2679 79.941 61.5818 79.941H64.8031C65.117 79.941 65.3717 80.1957 65.3717 80.5096C65.3717 80.8239 65.117 81.0782 64.8031 81.0782ZM63.1925 66.9051C64.3393 66.9051 65.2692 67.835 65.2692 68.9818C65.2692 70.1286 64.3397 71.0585 63.1928 71.0585C62.0457 71.0585 61.1158 70.129 61.1158 68.9818C61.1169 67.8354 62.046 66.9062 63.1925 66.9051ZM61.1158 62.9493C61.1158 61.8025 62.0457 60.8726 63.1925 60.8726C64.3397 60.8726 65.2696 61.8022 65.2696 62.9493C65.2696 64.0962 64.3397 65.0261 63.1925 65.0261C62.0464 65.0249 61.1172 64.0958 61.1158 62.9493ZM63.1925 73.1389C64.3397 73.1389 65.2696 74.0684 65.2696 75.2156C65.2696 76.3624 64.3397 77.2923 63.1928 77.2923C62.046 77.2927 61.1161 76.3628 61.1158 75.216C61.1169 74.0696 62.046 73.14 63.1925 73.1389ZM69.728 71.0585C68.5808 71.0585 67.6513 70.129 67.6513 68.9818C67.6513 67.835 68.5808 66.9051 69.728 66.9051C70.8748 66.9051 71.8047 67.835 71.8047 68.9818C71.8032 70.1282 70.8741 71.0574 69.7276 71.0585H69.728ZM69.728 65.0261C68.5808 65.0261 67.6509 64.0965 67.6509 62.9493C67.6509 61.8025 68.5808 60.8726 69.728 60.8726C70.8748 60.8726 71.8047 61.8025 71.8047 62.9493C71.8032 64.0958 70.8741 65.0249 69.7276 65.0261H69.728ZM72.3407 57.0824C72.3407 57.3963 72.0864 57.651 71.7721 57.651H54.6128C54.2989 57.651 54.0442 57.3963 54.0442 57.0824V52.6524C54.0442 52.3381 54.2989 52.0838 54.6128 52.0838H71.7721C72.086 52.0838 72.3407 52.3381 72.3407 52.6524V57.0824Z" fill="white"/>
</g>
<defs>
<clipPath id="clip0">
<rect width="40" height="40" fill="white" transform="translate(47 48)"/>
</clipPath>
</defs>
</svg>
