<svg width="119" height="120" viewBox="0 0 119 120" fill="none" xmlns="http://www.w3.org/2000/svg">
<path opacity="0.5" d="M110.428 21.9272C121.654 36.1227 119.934 54.8066 116.036 72.1221C112.139 89.4305 106.002 107.756 89.2878 115.834C72.435 123.978 52.4654 119 35.5177 111.032C19.3049 103.41 5.66261 91.0876 1.3765 74.5055C-2.90318 57.9483 3.21955 41.1266 13.8917 27.3659C24.993 13.0521 40.2939 1.16041 59.0808 0.101972C78.8017 -1.00909 98.6266 7.00448 110.428 21.9272Z" fill="#B40101"/>
<path d="M98.6914 28.2726C107.504 40.1023 106.154 55.6721 103.094 70.1018C100.035 84.5254 95.2169 99.7971 82.0955 106.528C68.8652 113.315 53.188 109.166 39.8832 102.527C27.1553 96.1754 16.4454 85.9063 13.0806 72.0879C9.72085 58.2903 14.5275 44.2722 22.9057 32.805C31.6208 20.8767 43.6327 10.967 58.3814 10.085C73.8633 9.15909 89.4269 15.8371 98.6914 28.2726Z" fill="#B40101"/>
<g clip-path="url(#clip0)">
<path d="M66.2249 66.6141C68.1518 63.9355 69.3364 60.8576 69.7062 57.6088L59 54.5645L48.2938 57.6088C48.6635 60.8575 49.8481 63.9355 51.7751 66.6141C53.6513 69.2219 56.1412 71.32 59 72.7078C61.8588 71.32 64.3488 69.2219 66.2249 66.6141Z" fill="white"/>
<path d="M59 52.0804L69.8315 55.1604V50.1924L59 47.1123L48.1685 50.1924V55.1604L59 52.0804Z" fill="white"/>
<path d="M60.1947 40V44.9681L72.2209 48.3879V55.3981C72.2209 59.9597 70.8183 64.3207 68.1645 68.0095C66.09 70.893 63.346 73.222 60.1947 74.7826V80.0001C64.9533 78.1457 69.0374 74.979 72.0436 70.8002C75.2857 66.2935 76.9995 60.9675 76.9995 55.3981V44.7786L60.1947 40Z" fill="white"/>
<path d="M57.8052 74.7826C54.6539 73.2219 51.9099 70.8929 49.8355 68.0095C47.1818 64.3207 45.7791 59.9597 45.7791 55.398V48.3878L57.8052 44.968V40L41.0005 44.7786V55.398C41.0005 60.9674 42.7142 66.2934 45.9564 70.8001C48.9627 74.979 53.0467 78.1457 57.8052 80V74.7826Z" fill="white"/>
</g>
<defs>
<clipPath id="clip0">
<rect width="40" height="40" fill="white" transform="translate(39 40)"/>
</clipPath>
</defs>
</svg>
