<svg width="119" height="120" viewBox="0 0 119 120" fill="none" xmlns="http://www.w3.org/2000/svg">
<path opacity="0.5" d="M110.428 21.9272C121.654 36.1227 119.934 54.8066 116.036 72.1221C112.139 89.4305 106.002 107.756 89.2878 115.834C72.435 123.978 52.4654 119 35.5177 111.032C19.3049 103.41 5.66261 91.0876 1.3765 74.5055C-2.90318 57.9483 3.21955 41.1266 13.8917 27.3659C24.993 13.0521 40.2939 1.16041 59.0808 0.101972C78.8017 -1.00909 98.6266 7.00448 110.428 21.9272Z" fill="#B40101"/>
<path d="M98.6914 28.2726C107.504 40.1023 106.154 55.6721 103.094 70.1018C100.035 84.5254 95.2169 99.7971 82.0955 106.528C68.8652 113.315 53.188 109.166 39.8832 102.527C27.1553 96.1754 16.4454 85.9063 13.0806 72.0879C9.72085 58.2903 14.5275 44.2722 22.9057 32.805C31.6208 20.8767 43.6327 10.967 58.3814 10.085C73.8633 9.15909 89.4269 15.8371 98.6914 28.2726Z" fill="#B40101"/>
<g clip-path="url(#clip0)">
<path d="M75.7006 45.4416C74.1234 42.7604 72.5714 40.5822 72.506 40.4907C72.2861 40.1827 71.931 40 71.5525 40C71.1741 40 70.8189 40.1827 70.5989 40.4907C70.5336 40.5821 68.9816 42.7604 67.4044 45.4416C67.1784 45.8258 66.9649 46.1984 66.7625 46.5606C67.2697 47.3801 67.7892 48.2375 68.3067 49.1173C71.0218 53.733 72.9038 57.5926 73.9804 60.7652C76.8987 59.756 79.0004 56.9809 79.0004 53.724C79.0004 51.9255 77.921 49.2163 75.7006 45.4416Z" fill="white"/>
<path d="M59.9536 40.4907C59.7336 40.1827 59.3785 40 59 40C58.6216 40 58.2664 40.1827 58.0464 40.4907C58.0148 40.5351 54.8421 44.9877 51.7139 50.3055C47.4421 57.5677 45.2761 62.9409 45.2761 66.276C45.276 73.8434 51.4326 80 59 80C66.5675 80 72.724 73.8434 72.724 66.276C72.724 62.9409 70.558 57.5677 66.2862 50.3055C63.158 44.9877 59.9853 40.5351 59.9536 40.4907Z" fill="white"/>
<path d="M49.357 49.694C48.2915 48.016 47.4492 46.8336 47.4015 46.7668C47.1815 46.4589 46.8263 46.2761 46.4479 46.2761C46.0695 46.2761 45.7143 46.4589 45.4943 46.7668C45.429 46.8582 43.877 49.0365 42.2998 51.7178C40.0794 55.4925 39 58.2016 39 60C39 62.8376 40.5953 65.3094 42.936 66.5664C42.9022 64.6671 43.142 60.3898 49.357 49.694Z" fill="white"/>
</g>
<defs>
<clipPath id="clip0">
<rect width="40" height="40" fill="white" transform="translate(39 40)"/>
</clipPath>
</defs>
</svg>
